<?xml version="1.0" encoding="UTF-8"?>
<!-- Generator: Adobe Illustrator 26.0.0, SVG Export Plug-In . SVG Version: 6.00 Build 0)  -->
<svg version="1.1" id="Calque_1" xmlns="http://www.w3.org/2000/svg" xmlns:xlink="http://www.w3.org/1999/xlink" x="0px" y="0px" viewBox="0 0 120.9 200" style="enable-background:new 0 0 120.9 200;" xml:space="preserve">
<style type="text/css">
	.st0{fill:#CCA980;}
	.st1{fill:#4775B6;}
	.st2{fill:#292949;}
	.st3{fill:#121054;}
	.st4{fill:#DDDAE8;}
	.st5{fill:#514943;}
	.st6{fill:#EACDB0;}
	.st7{fill:#E08D41;}
	.st8{fill:#FFFFFF;}
	.st9{fill:#FFFFF1;}
	.st10{opacity:0.26;}
	.st11{fill:#474EBB;}
	.st12{fill:none;}
	.st13{fill:#5874B1;}
</style>
<g id="background">
</g>
<g id="shadow">
</g>
<g id="object">
	<g>
		<g>
			<polygon class="st0" points="62.2,85.8 62.5,88.4 61.4,90.2 59.6,89.9 59.3,86.8 61.9,85.6    "/>
		</g>
		<g>
			<polygon class="st1" points="42.3,83.6 55.4,100.8 58,89.5 62.5,90.4 59.9,107.4 55.4,110.6 43.4,102.6    "/>
		</g>
		<g>
			<polygon class="st1" points="89.7,86.3 93.9,89.4 110.2,111.9 109.5,117.3 102.1,117.3 85.8,95.5    "/>
		</g>
		<g>
			<polygon class="st2" points="18.7,180.1 18.3,182.1 21.7,185 24.1,183.4 22.6,180.9 19.1,178    "/>
		</g>
		<g>
			<polygon class="st3" points="30.9,117.6 27,126.6 26.7,152.1 18.7,179.4 22.4,181 38.7,149.3 40.6,139.3 41.5,118.1    "/>
		</g>
		<g>
			<polygon class="st3" points="50,119.6 50.2,146.3 45.2,180.6 41.4,180.6 38.9,148.9 33.6,117.3    "/>
		</g>
		<g>
			<polygon class="st2" points="41.4,180.1 41.4,182.2 45.5,184.3 47.6,182.2 45.5,180.1    "/>
		</g>
		<g>
			<path class="st1" d="M42.3,83.6L32,83.2c0,0-6.1,5.4-9.3,19.4c-3.2,14.2,0.6,34.8,0.6,34.8s27.5-3.7,32-4.2l-6.9-28.1L42.3,83.6z     "/>
		</g>
		<g>
			<g>
				<path class="st0" d="M38.7,84.6c-1.2-0.1-2.4-0.3-3.6-0.3c0-0.9,0.1-2,0.2-2.9c-1-0.3-2.1-0.8-2.3-2c-0.1-0.3,0-0.7,0.1-1      c0.3-1.4,0.4-2.7,0.7-4.1c0.1-0.4,0.2-0.9,0.4-1.4c0.4-0.7,1.3-1,2.1-1.1c2.1-0.3,4.3,0.1,6,1.4c0.4,0.3,0.8,0.8,1,1.4      c0.3,0.8,0.1,1.8-0.2,2.5s-0.4,1.6-0.6,2.3c-0.3,0.9-0.6,2-1.4,2.3c-0.4,0.2-1,0.1-1.4,0.4C38.9,82.7,39.1,83.9,38.7,84.6z"/>
			</g>
			<g>
				<path class="st2" d="M50.3,71.1c0-0.9-0.1-1.9-0.3-2.7c-0.3-1.4-2-2.1-3.5-2.2c-3.2-0.3-6.3-1.7-9.4-0.6      c-1.8,0.6-4.2,0.8-5.9,1.7c-0.7,0.4-1.3,0.9-1.6,1.6c-1.4,2.3-1.4,5.4,0,7.6c0.3,0.5,0.8,0.9,1.1,1.4c0.8,0.9,1.9,2,3,2.4      c0-1-0.9-4.3-0.1-5.2c1.3-1.4,4.2-0.9,5.7-0.6c1.7,0.3,3.2,1.6,4.9,1.8c1.3,0.2,2.8-0.4,3.8-1.1C49.8,74.4,50.3,72.7,50.3,71.1z      "/>
			</g>
		</g>
		<g>
			<path class="st4" d="M39.5,84.9L50.3,128l0.9,5.7l-13.4,1.8c0,0,0.5-20.7,0.3-23.4c-0.2-2.8-2.1-8.8-2.5-15.1     c-0.2-3.7-1.4-10.4-0.5-12.5L39.5,84.9z"/>
		</g>
		<g>
			<path class="st2" d="M77,71c0,0-2,1.5-1,7.3c0.9,5.7,0.3,9.5,0.3,9.5s2,0.9,3.4,0s2-1.1,1.4-3.4C80.6,82.2,79.5,71,79.5,71     S77,71,77,71z"/>
		</g>
		<g>
			<polygon class="st5" points="94.3,180 94.5,181.7 91.4,183.7 89.7,182.3 91.1,180.4 94.2,178.3    "/>
		</g>
		<g>
			<polygon class="st6" points="94.2,129.5 94.8,134.5 90.2,151.8 94.4,179.5 91.4,180.5 83.3,153.5 81.9,145.6 82,129    "/>
		</g>
		<g>
			<polygon class="st6" points="70.6,135.1 77.1,181.5 80,181.5 80.6,151.8 85.8,130.8    "/>
		</g>
		<g>
			<polygon class="st5" points="80,181.2 80,182.8 76.8,184.4 75.2,182.8 76.8,181.2    "/>
		</g>
		<g>
			<path class="st1" d="M78.6,87.9c0.1-0.1,0.1-0.3,0.2-0.3c2.3-3.5,7.6-1.3,11-1.3c0.9,9.8,3.5,19.2,5.2,28.9     c1.8,10.3,3.8,20.5,6,30.7c0.1,0.6-8.8,0.3-9.6,0.3c-8.6,0.2-19.8,0.1-28.1-2.5c5.3-14.2,7.2-29.5,11.4-44.1     c0.9-3.2,2-6.4,3.1-9.5C77.8,89.4,78.2,88.6,78.6,87.9z"/>
		</g>
		<g>
			<path class="st2" d="M81.7,72.9c-2.1,0.6-3.9,2.6-4.2,4.8c-1.2-1.1-1.8-2.8-1.6-4.4c0.3-1.6,1.3-3.1,2.7-3.8     c1.4,0.8,2.4,2,2.8,3.5L81.7,72.9z"/>
		</g>
		<g>
			<path class="st0" d="M77.3,75.8c1.1-5.9,8.6-4.9,10.6-0.1c1.2,2.7,0.9,8.1-2.5,9c-0.1,0.5-0.1,1.5-0.5,1.9     c-0.4,0.4-1.8,0-2.3-0.1c-0.2-0.1-0.3-0.1-0.4-0.2c-0.2-0.1-0.2-0.5-0.2-0.9c-0.4,0-0.8-0.1-1.2-0.3c-1.7-0.6-3-2.1-3.5-3.9     C76.8,79.5,77,77.6,77.3,75.8z"/>
		</g>
		<g>
			<path class="st2" d="M78.9,69.5c0,0-0.8,3.2,3.4,4.2c4.2,0.9,6.8,4.2,6,7.6c-0.8,3.4-3.7,5.9-2.1,6.8c1.6,0.9,7.6,0,7.6,0     s3.6-12-1.3-17.2C87.6,65.6,80.6,65.4,78.9,69.5z"/>
		</g>
		<g>
			<polygon class="st1" points="79.5,86.7 76.6,88.5 63.5,104.6 63.8,109.1 70,109.1 81.2,91.3    "/>
		</g>
		<g>
			<path class="st7" d="M111.8,102.3c-12.6-2.1-16.2-9.9-16.7-11v-0.1c0-0.1-0.1,0.1-0.1,0.1c-1.1,0.4-9.1,3.5-19.6-3.7     c0,0-10.1,20.1-6.7,31.3c3.6,12,8.6,17.1,8.6,17.1c0,0.1,7.2-0.3,18-6.5C105.3,123.7,111.8,102.3,111.8,102.3z"/>
		</g>
		<g>
			<path class="st7" d="M109.3,103.7c-11.4-2-14.8-8.9-15.2-9.9v-0.1c0-0.1-0.1,0-0.1,0c-1,0.4-8.2,3.1-17.8-3.3     c0,0-9,17.8-5.9,27.9c3.3,10.6,7.6,15.8,7.6,15.8c0,0.1,6.7-0.6,16.5-6.2C103.5,122.9,109.3,103.7,109.3,103.7z"/>
		</g>
		<g>
			<g>
				<path class="st7" d="M93.3,95.7L93.3,95.7C93.4,95.7,93.3,95.7,93.3,95.7c0.5,1.1,4,8.1,15.3,10.3c0.7-2,1.1-3.1,1.1-3.1      c-11.4-2-14.8-8.9-15.2-9.9v-0.1c0-0.1-0.1,0-0.1,0c-1,0.4-8.2,3.1-17.8-3.3c0,0-0.6,1.1-1.4,3C85,98.7,92.3,96.1,93.3,95.7z"/>
			</g>
		</g>
		<g>
			<g>
				<g>
					<path class="st8" d="M104.2,107.6c-8.6-1.4-12-7.3-12.3-8.1v-0.1c0-0.1-0.1,0-0.1,0c-0.8,0.3-7.2,2.2-14.4-2.6       c0,0-5.9,13.9-3.7,21.6c2.5,8.2,5.9,11.7,5.9,11.7s4.9-0.1,12.3-4.4C98.7,121.8,104.2,107.6,104.2,107.6z"/>
				</g>
			</g>
		</g>
		<g>
			<polygon class="st1" points="32.1,83.3 27.3,86 11.4,109.6 12.7,115.7 21.6,114.6    "/>
		</g>
		<g>
			<polygon class="st7" points="57.1,117.4 23.3,126.2 17.2,102.4 31.6,88.5 51,93.6    "/>
		</g>
		<g>
			<path class="st7" d="M59.3,90.6c-3.1-0.8-6.2-1.6-9.3-2.5c-5-1.3-10-2.6-15-3.9c-1.2-0.3-2.5-0.7-3.7-0.9c-0.8-0.2-1.4,0-2,0.6     c-0.3,0.3-0.7,0.7-1.1,1.1c-3.4,3.4-6.8,6.7-10.2,10.1c-2.8,2.7-5.5,5.4-8.2,8.2c-0.1,0.1-0.1,0.1-0.1,0.1     c-0.7,0.7-0.7,1.9,0,2.5s1.9,0.7,2.5,0c2.2-2.2,4.5-4.4,6.7-6.7c3.6-3.5,7.1-7.1,10.6-10.6c0.6-0.6,1.1-1.1,1.7-1.7     c2.8,0.8,5.6,1.4,8.4,2.2c5,1.3,10.1,2.6,15.2,3.9c1.1,0.3,2.3,0.6,3.5,0.9c0.9,0.3,2-0.3,2.2-1.3C60.8,91.9,60.2,90.8,59.3,90.6     z"/>
		</g>
		<g>
			
				<rect x="25.7" y="107" transform="matrix(0.9681 -0.2507 0.2507 0.9681 -27.913 11.2062)" class="st9" width="8.6" height="16.4"/>
		</g>
		<g>
			<g>
				
					<rect x="38.1" y="104.1" transform="matrix(0.9681 -0.2507 0.2507 0.9681 -25.3003 13.5159)" class="st9" width="4.7" height="4"/>
			</g>
			<g>
				
					<rect x="43.9" y="102.5" transform="matrix(0.9681 -0.2507 0.2507 0.9681 -24.731 14.9379)" class="st9" width="4.7" height="4"/>
			</g>
			<g>
				
					<rect x="39.4" y="109.3" transform="matrix(0.9681 -0.2507 0.2507 0.9681 -26.5566 14.0205)" class="st9" width="4.7" height="4"/>
			</g>
			<g>
				
					<rect x="45.3" y="107.8" transform="matrix(0.9681 -0.2507 0.2507 0.9681 -26.009 15.4473)" class="st9" width="4.7" height="4"/>
			</g>
		</g>
		<g>
			<polygon class="st1" points="11.4,109.6 17.2,107.8 37,118.4 35.4,122.5 12.7,115.7    "/>
		</g>
		<g>
			<polygon class="st0" points="36.7,119.1 40.2,119.1 43,122.4 39.8,123.5 35.6,122    "/>
		</g>
		<g>
			<polygon class="st1" points="110.2,111.9 103.6,109.8 88.4,111.4 88.5,116.1 109.5,118.4    "/>
		</g>
		<g>
			<polygon class="st0" points="88.4,112 84.8,111.9 81.2,114 82.6,116.1 86.2,115.7 88.5,114.7    "/>
		</g>
		<g>
			<g>
				<path class="st2" d="M64.9,18.6c0-0.6,0-1.2,0-1.8l-0.8-1.6c-0.3-0.3-0.6-0.3-0.8,0l-0.8,1.6v1.8c-0.6,0-1.7,0.5-1.7,1.1      c0,0.6,0.5,1.1,1.1,1.1h0.5v59.5c0,3.3-1.8,6.1-4.3,6c-2-0.1-3.7-1.7-4-4.5c-0.1-0.6-0.6-1.1-1.2-1.1h-0.1      c-0.8,0-1.3,0.6-1.2,1.3c0.5,3.9,3.6,6.7,6.5,6.7c2.3,0,4.2-1.1,5.3-3c1.4-2.4,1.3-5,1.3-7.6c0-2.5,0-4.9,0-7.4      c0-3.5,0-6.9,0-10.3c0-3.9,0-7.9,0-11.8s0-7.8,0-11.7c0-3.4,0-6.8,0-10.2c0-2,0-4,0-6h0.3c0.6,0,1.1-0.5,1.1-1.1      C66.4,19.1,65.6,18.6,64.9,18.6z"/>
			</g>
			<g class="st10">
				<polygon class="st11" points="64.9,51.9 62.5,49.5 62.5,45.5 64.9,45.5     "/>
			</g>
		</g>
		<g>
			<path class="st12" d="M81.2,57.5c0.1,0.1,0.2,0.1,0.3,0.1c0.1-0.1,0.3-0.1,0.4-0.1h-0.4H81.2z"/>
		</g>
		<g>
			<path class="st3" d="M46.7,57.1l0.4-2.5c1.4-8.8,4.8-17.3,9.9-24.6l6.4-9.2c-15.7,0.7-29.2,9.9-35.7,23.3c-2,4.1-3.4,8.5-4,13.2     c3.4-1,7.3-1.6,11.5-1.6C39.4,55.5,43.3,56.1,46.7,57.1z"/>
		</g>
		<g>
			<path class="st3" d="M80.4,52l1.1,5.4h0.4c3.6-1.2,7.8-1.9,12.4-1.9c4.5,0,8.8,0.7,12.5,1.9c-0.8-5.9-2.7-11.6-5.7-16.5     c-7.3-12.1-20.7-20.2-35.9-20.2c-0.4,0-0.9,0-1.4,0l5.2,7.6C75.5,36,78.3,43.9,80.4,52z"/>
		</g>
		<g>
			<path class="st13" d="M47.2,54.6l-0.4,2.5c0.1,0,0.1,0,0.1,0.1c4.3-2,10.3-3.1,16.9-3.1c6.9,0,13.2,1.3,17.6,3.3h0.3l-1.1-5.4     c-2.1-8.1-5-16-11.3-23.7L64,20.8c-0.2,0-0.3,0-0.4,0l-6.5,9.3C52,37.4,48.6,45.8,47.2,54.6z"/>
		</g>
		<g>
			<path class="st8" d="M46.7,57.1L46.7,57.1C46.8,57.2,46.8,57.1,46.7,57.1C46.8,57.2,46.7,57.2,46.7,57.1z"/>
		</g>
		<g>
			<polygon class="st1" points="63.5,104.6 69.3,104.2 80,116.1 77.7,118.4 63.8,109.1    "/>
		</g>
		<g>
			<polygon class="st0" points="79.5,116.6 81.7,118.4 81.9,121.8 80,121.8 78.3,117.8    "/>
		</g>
		<g>
			<polygon class="st0" points="58.3,89.5 57.1,87.5 57.2,84.4 58.3,84.7 58.6,86.3 60.6,88.1 60,89.9    "/>
		</g>
		<g>
			<polygon class="st0" points="58.3,86.9 58.5,84.9 60.7,83.3 62.1,84.4 61.8,86.1    "/>
		</g>
	</g>
</g>
</svg>