<?xml version="1.0" encoding="UTF-8"?>
<!-- Generator: Adobe Illustrator 26.0.0, SVG Export Plug-In . SVG Version: 6.00 Build 0)  -->
<svg version="1.1" id="Ñëîé_1" xmlns="http://www.w3.org/2000/svg" xmlns:xlink="http://www.w3.org/1999/xlink" x="0px" y="0px" viewBox="0 0 1000 621.6" style="enable-background:new 0 0 1000 621.6;" xml:space="preserve">
<g>
	<g>
		<path style="fill:#DDE7FE;" d="M924.3,563.6c0.2-13.9,95.4-110.3,7.2-240.1c-32.7-48.2-90.4-48.1-106.2-80.7    c-25.2-52.2-22.3-116.6-56.8-163.2c-43.6-58.9-141.8-78-211.2-79.5c-59-1.3-118.3,16-167.3,48.8c-35.3,23.6-57.9,60.3-89.2,88.1    c-34.4,30.7-80.5,37.3-116.6,64.6c-32.6,24.6-103.6,60-111.1,152c-7,86.3,41.9,174.1,88,205.6L924.3,563.6z"/>
		<path style="fill:#B9CAEF;" d="M933.2,549.6c0-39.7-199-71.9-444.4-71.9S44.4,509.9,44.4,549.6s199,71.9,444.4,71.9    C734.2,621.6,933.2,589.4,933.2,549.6L933.2,549.6z"/>
		<g>
			<path style="fill:#80B09C;" d="M79.9,590.2L79.9,590.2c-0.5-0.1-0.8-0.5-0.7-0.9c21.4-104.6,42.8-179,60.2-209.5     c0.4-0.7,0.7-1.2,0.8-1.4c0.2-0.4,0.6-0.6,1-0.4s0.6,0.6,0.4,1c-0.1,0.3-0.4,0.8-0.8,1.6c-17.3,30.4-38.6,104.6-60,209.1     C80.5,590,80.2,590.2,79.9,590.2z"/>
			<path style="fill:#80B09C;" d="M152.7,373.4c-2.1,3.4-13.4,10.4-14.4,9.8s-0.1-13.9,2-17.3s6.5-4.5,10-2.5     C153.7,365.5,154.8,369.9,152.7,373.4z"/>
			<path style="fill:#80B09C;" d="M130.6,385.2c1.5,3.8,0.2,17.4-0.8,17.8c-1.1,0.4-11.4-8.5-12.9-12.3s0.3-8.1,4.1-9.7     C124.8,379.6,129.1,381.4,130.6,385.2z"/>
			<path style="fill:#80B09C;" d="M146.9,407.3c-4.1,0.6-17-3.7-17.2-4.8c-0.2-1.2,10.8-9.2,14.9-9.8c4.1-0.6,7.9,2.1,8.5,6.2     C153.8,402.9,151,406.7,146.9,407.3z"/>
			<path style="fill:#80B09C;" d="M101.8,455.9c3.2,6.1,3.5,29,1.8,29.9S83,473.7,79.8,467.6c-3.2-6.1-0.9-13.6,5.1-16.9     C91,447.5,98.5,449.8,101.8,455.9z"/>
			<path style="fill:#80B09C;" d="M133,489.8c-6.7,1.8-29-3.1-29.6-5c-0.5-1.9,16.4-17.3,23.1-19.1c6.7-1.8,13.5,2.2,15.3,8.8     C143.6,481.2,139.6,488,133,489.8z"/>
			<path style="fill:#A7C0E8;" d="M86.2,483c5.5,6.4,12,33.7,10.2,35.2c-1.8,1.6-27.8-8.9-33.3-15.3s-4.8-16,1.6-21.5     C71.1,475.9,80.7,476.6,86.2,483z"/>
			<path style="fill:#80B09C;" d="M130.4,527c-8.3,1.3-35-7.4-35.4-9.8c-0.4-2.4,22.2-19,30.5-20.4c8.3-1.3,16.2,4.3,17.5,12.6     C144.4,517.9,138.8,525.7,130.4,527z"/>
			<path style="fill:#A7C0E8;" d="M78.2,517.2c5.5,6.4,12,33.7,10.2,35.2c-1.8,1.6-27.8-8.9-33.3-15.3c-5.5-6.4-4.8-16,1.6-21.5     C63,510.1,72.7,510.8,78.2,517.2z"/>
			<path style="fill:#A7C0E8;" d="M122.4,561.2c-8.3,1.3-35-7.4-35.4-9.8c-0.4-2.4,22.2-19,30.5-20.4c8.3-1.3,16.2,4.3,17.5,12.6     C136.4,552.1,130.7,559.9,122.4,561.2z"/>
			<path style="fill:#A7C0E8;" d="M57.7,561.1c7.5,3.8,24,26.5,22.9,28.7s-29.1,2.4-36.7-1.4c-7.5-3.8-10.5-13-6.7-20.5     C41,560.3,50.2,557.3,57.7,561.1z"/>
			<path style="fill:#A7C0E8;" d="M115.6,595c-8.1,2.4-35.6-3-36.3-5.3s19.6-21.7,27.7-24c8.1-2.4,16.6,2.3,18.9,10.4     C128.3,584.1,123.7,592.6,115.6,595z"/>
			<path style="fill:#80B09C;" d="M121.8,407.2c1.6,3.9,0.2,17.7-0.9,18.1s-11.6-8.6-13.2-12.5s0.3-8.3,4.2-9.8     C115.8,401.5,120.2,403.3,121.8,407.2z"/>
			<path style="fill:#80B09C;" d="M137.8,430c-4.1,0.6-17.3-3.7-17.5-4.9c-0.2-1.2,11-9.4,15.1-10s8,2.2,8.6,6.3     C144.7,425.5,141.9,429.3,137.8,430z"/>
			<path style="fill:#80B09C;" d="M111.2,427.8c2.7,5.3,2.4,25,0.9,25.8S94.7,442.7,92,437.4c-2.7-5.3-0.5-11.7,4.8-14.4     C102.1,420.4,108.6,422.5,111.2,427.8z"/>
			<path style="fill:#80B09C;" d="M136.7,459.9c-5.9,0.9-24.5-5.3-24.8-7s15.6-13.3,21.5-14.2c5.9-0.9,11.3,3.1,12.3,8.9     C146.5,453.5,142.5,459,136.7,459.9z"/>
		</g>
		<path style="fill:#FFFFFF;" d="M443.3,66.7c-2.8-0.7-6-2.4-5.8-5.2c0.2-2.5,3.2-3.8,5.8-3.8c2.5,0.1,5.1,0.9,7.6,0.3    c3.2-0.8,5.4-3.8,7.4-6.4c2.1-2.8,4.4-5.6,7.5-7.4c3.1-1.8,7-2.3,10.1-0.6c2.4,1.3,4,3.8,6.5,4.8c3.4,1.4,7.1-0.3,10.7-1.2    c3.5-0.9,8.3-0.3,9.4,3.2c0.9,2.9-1.3,6.6,0.7,8.9c10.6,11.5-10.2,7.6-17.7,8.1C471.5,68.3,457.2,70.2,443.3,66.7z"/>
		<path style="fill:#FFFFFF;" d="M429.3,161.9c2.6,1.5,5.9,2,9,2.5c2.3,0.4,4.6,0.7,6.9,1.1c5.2,0.8,10.6,1.7,15.6,0.3    c3.6-1,6.7-3.1,10.4-3.9c3.7-0.8,7.6-0.1,11.4-0.3c1.1,0,2.2-0.2,3.2-0.5c2.1-0.8,3.4-2.8,3.1-4.6c-0.4-1.9-2.4-3.4-4.7-3.6    c-3.1-0.3-6.8,1.4-8.9-0.4c-0.7-0.6-1-1.5-1.5-2.3c-1-1.5-3-2.4-5.1-3.1c-6.4-2-11.7-0.6-18,0.1c-4.3,0.5-8.3-0.3-12.5-0.6    c-5.5-0.4-11,0.3-12.9,5C423.7,155.4,425.5,159.8,429.3,161.9z"/>
		<g>
			<path style="fill:#80B09C;" d="M551,197.5c15.4,2.3,29.3,10.3,30.9,27.6c1.5,16.4-11,32.7-4.8,48.9c6.4,16.7,24.5,22.4,17.9,43     c-2.4,7.4-6.2,14.5-6,22.2c0.4,16.2,16.2,26,23.9,38.7c10,16.4,6.3,38.9-7,52.4c-25.2,25.6-67.9,16.4-99.7,14     c-18.5-1.4-35.1-10.9-39.7-30c-5.4-22.3,8.7-33,17.4-50.6c8.5-17.1-2-37.3-2.2-56.5c-0.3-21.4,17-33.2,20.2-52.8     c2.3-14.2-5.7-28.9,2.3-42.3c4.2-7.1,12-11.5,20.1-13.4C532.1,196.8,541.8,196.1,551,197.5z"/>
			<path style="fill:#17152B;" d="M541.9,524.4c-0.6,0-1.1-0.5-1.1-1.1V241.2c0-0.6,0.5-1.1,1.1-1.1s1.1,0.5,1.1,1.1v282.1     C543,523.9,542.5,524.4,541.9,524.4z"/>
			<path style="fill:#17152B;" d="M541.9,368.8c-0.4,0-0.8-0.2-1-0.6l-31-67.7c-0.2-0.5,0-1.2,0.5-1.4c0.5-0.3,1.2,0,1.4,0.5     l31,67.7c0.2,0.5,0,1.2-0.5,1.4C542.2,368.8,542,368.8,541.9,368.8z"/>
			<path style="fill:#17152B;" d="M541.9,417.7c-0.2,0-0.4-0.1-0.6-0.2c-0.5-0.3-0.6-1-0.3-1.5l30.5-43.8c0.3-0.5,1-0.6,1.5-0.3     c0.5,0.3,0.6,1,0.3,1.5l-30.5,43.8C542.6,417.6,542.2,417.7,541.9,417.7z"/>
		</g>
		<g>
			<path style="fill:#80B09C;" d="M702.7,123.3c13.3,2.2,25.3,9.7,26.7,26c1.3,15.5-9.5,30.8-4.2,46.1c5.5,15.7,21.2,21.1,15.5,40.6     c-2,6.9-5.3,13.7-5.2,21c0.3,15.2,14,24.6,20.7,36.5c8.6,15.4,5.4,36.7-6,49.4c-21.8,24.1-58.7,15.5-86.2,13.2     c-16-1.3-30.4-10.2-34.4-28.3c-4.6-21,7.5-31.1,15.1-47.7c7.4-16.2-1.7-35.2-1.9-53.2c-0.2-20.2,14.7-31.3,17.4-49.8     c2-13.4-4.9-27.2,1.9-39.9c3.6-6.7,10.4-10.8,17.4-12.6C686.4,122.7,694.8,122.1,702.7,123.3z"/>
			<path style="fill:#17152B;" d="M694.8,431.6c-0.5,0-0.9-0.5-0.9-1v-266c0-0.6,0.4-1,0.9-1s0.9,0.5,0.9,1v265.9     C695.8,431.1,695.3,431.6,694.8,431.6z"/>
			<path style="fill:#17152B;" d="M694.8,284.9c-0.4,0-0.7-0.2-0.9-0.6l-26.8-63.9c-0.2-0.5,0-1.1,0.5-1.4c0.5-0.2,1,0,1.2,0.5     l26.8,63.9c0.2,0.5,0,1.1-0.5,1.4C695.1,284.8,694.9,284.9,694.8,284.9z"/>
			<path style="fill:#17152B;" d="M694.8,331c-0.2,0-0.4-0.1-0.5-0.2c-0.4-0.3-0.5-1-0.2-1.4l26.4-41.3c0.3-0.5,0.9-0.6,1.3-0.3     c0.4,0.3,0.5,1,0.2,1.4l-26.4,41.3C695.4,330.8,695.1,331,694.8,331z"/>
		</g>
		<path style="fill:#FFFFFF;" d="M639.7,87.3c3.6,2,8.1,2.8,12.5,3.5c3.2,0.5,6.4,1,9.6,1.5c7.2,1.2,14.8,2.3,21.8,0.4    c5-1.4,9.3-4.3,14.5-5.4s10.6-0.2,15.9-0.4c1.5-0.1,3.1-0.2,4.4-0.7c2.9-1.1,4.8-3.9,4.2-6.4c-0.5-2.6-3.4-4.7-6.6-5    c-4.3-0.4-9.4,2-12.4-0.5c-1-0.9-1.4-2.1-2.1-3.2c-1.5-2.1-4.2-3.4-7-4.3c-8.8-2.7-16.2-0.8-25.1,0.2c-6,0.7-11.5-0.4-17.5-0.8    c-7.6-0.5-15.3,0.4-18,7C631.9,78.2,634.4,84.3,639.7,87.3z"/>
		<g>
			<polygon style="fill:#060633;" points="594.6,220.6 808.2,220.6 685.6,344.5 472,344.5    "/>
			<polygon style="fill:#FDA769;" points="606.3,232.7 495.7,344.5 495.7,530.3 902.7,530.3 902.7,332.3    "/>
			<rect x="716.9" y="336.8" style="fill:#EB7D2B;" width="185.8" height="193.5"/>
			<polygon style="fill:#4774B5;" points="807.9,220.6 594.3,220.6 716.9,344.5 930.5,344.5    "/>
			<g>
				<g>
					<rect x="587.8" y="279.2" style="fill:#FFFFFF;" width="25.7" height="52.7"/>
					<path style="fill:#060633;" d="M615.5,334h-29.8v-56.8h29.8V334z M589.9,329.9h21.6v-48.6h-21.6V329.9z"/>
				</g>
				<rect x="599.4" y="280" style="fill:#060633;" width="2.5" height="52"/>
				<rect x="587.5" y="304.3" style="fill:#060633;" width="27.1" height="2.5"/>
			</g>
			<g>
				<g>
					<path style="fill:#FFFFFF;" d="M529.3,371.5L529.3,371.5c12.4,0,22.5,10.1,22.5,22.5v69.9h-44.9V394       C506.8,381.5,516.9,371.5,529.3,371.5z"/>
					<path style="fill:#060633;" d="M553.8,465.8h-49v-74.7c0-12,9.7-21.7,21.7-21.7h5.6c12,0,21.7,9.7,21.7,21.7V465.8z        M508.9,461.7h40.8v-70.6c0-9.7-7.9-17.6-17.6-17.6h-5.6c-9.7,0-17.6,7.9-17.6,17.6L508.9,461.7L508.9,461.7z"/>
				</g>
				<rect x="527" y="372.8" style="fill:#060633;" width="4.4" height="91"/>
				<rect x="504.8" y="415.4" style="fill:#060633;" width="47.5" height="4.4"/>
				<rect x="495.8" y="461.2" style="fill:#060633;" width="58.3" height="4.9"/>
			</g>
			<g>
				<g>
					<path style="fill:#FFFFFF;" d="M681.9,371.5L681.9,371.5c12.4,0,22.5,10.1,22.5,22.5v69.9h-44.9V394       C659.5,381.5,669.5,371.5,681.9,371.5z"/>
					<path style="fill:#060633;" d="M706.5,465.8h-49v-74.7c0-12,9.7-21.7,21.7-21.7h5.6c12,0,21.7,9.7,21.7,21.7V465.8z        M661.5,461.7h40.8v-70.6c0-9.7-7.9-17.6-17.6-17.6h-5.6c-9.7,0-17.6,7.9-17.6,17.6L661.5,461.7L661.5,461.7z"/>
				</g>
				<rect x="679.6" y="372.8" style="fill:#060633;" width="4.4" height="91"/>
				<rect x="657.5" y="415.5" style="fill:#060633;" width="47.5" height="4.4"/>
				<rect x="648.3" y="461.2" style="fill:#060633;" width="58.3" height="4.9"/>
			</g>
			<g>
				<g>
					<rect x="561.5" y="372.3" style="fill:#4774B5;" width="83.4" height="158.8"/>
					<rect x="566" y="376.4" style="fill:#060633;" width="73" height="69.1"/>
					<rect x="566" y="456" style="fill:#060633;" width="73" height="69.1"/>
				</g>
				<rect x="578.6" y="383.7" style="fill:#FFFFFF;" width="47.2" height="54.5"/>
				<rect x="573.8" y="408.9" style="fill:#060633;" width="56.7" height="4.2"/>
				<rect x="600.1" y="380.5" style="fill:#060633;" width="4.2" height="58.5"/>
				<path style="fill:#91B5F8;" d="M639,484.2h-8.1c-0.8,0-1.5-0.7-1.5-1.5v-23.3c0-0.8,0.7-1.5,1.5-1.5h8.1v3.1h-6.6v20.2h6.6      V484.2z"/>
			</g>
			<polygon style="fill:#060633;" points="744.1,230.4 767.9,254.2 793.8,254.2 793.8,204.8 745.2,204.8    "/>
			<rect x="742" y="200" style="fill:#0B0755;" width="56.2" height="8.8"/>
		</g>
		<g>
			<path style="fill:#3E8D7C;" d="M789.3,306.8c11.3,1.7,21.6,7.5,22.7,20.3c1.1,12.1-8.1,24-3.6,36c4.7,12.3,18,16.5,13.2,31.7     c-1.7,5.4-4.5,10.7-4.4,16.4c0.3,11.9,11.9,19.2,17.6,28.5c7.3,12,4.6,28.6-5.1,38.5c-18.5,18.8-50,12.1-73.4,10.3     c-13.6-1-25.8-8-29.2-22.1c-3.9-16.4,6.4-24.3,12.8-37.2c6.3-12.6-1.5-27.5-1.6-41.6c-0.2-15.8,12.5-24.4,14.8-38.9     c1.7-10.5-4.2-21.2,1.7-31.1c3.1-5.2,8.9-8.5,14.8-9.9C775.4,306.3,782.5,305.8,789.3,306.8z"/>
			<path style="fill:#1F1B28;" d="M782.6,547.7c-0.6,0-1-0.4-1-1V339.1c0-0.6,0.4-1,1-1s1,0.4,1,1v207.6     C783.6,547.2,783.1,547.7,782.6,547.7z"/>
			<path style="fill:#1F1B28;" d="M782.6,433.1c-0.4,0-0.7-0.2-0.9-0.6l-22.8-49.9c-0.2-0.5,0-1.1,0.5-1.3c0.5-0.2,1.1,0,1.3,0.5     l22.8,49.9c0.2,0.5,0,1.1-0.5,1.3C782.9,433.1,782.7,433.1,782.6,433.1z"/>
			<path style="fill:#1F1B28;" d="M782.6,469.1c-0.2,0-0.4-0.1-0.6-0.2c-0.5-0.3-0.6-0.9-0.2-1.4l22.4-32.2c0.3-0.5,0.9-0.6,1.4-0.3     c0.5,0.3,0.6,0.9,0.2,1.4l-22.4,32.2C783.2,469,782.9,469.1,782.6,469.1z"/>
		</g>
		<g>
			<path style="fill:#317F6C;" d="M892.2,135c19.2,2.8,36.4,12.7,38.4,34.3c1.9,20.4-13.7,40.6-6,60.8c7.9,20.8,30.5,27.9,22.2,53.5     c-2.9,9.1-7.7,18.1-7.4,27.7c0.5,20.1,20.1,32.4,29.7,48.2c12.4,20.4,7.8,48.4-8.7,65.1c-31.3,31.8-84.5,20.4-124,17.4     c-23-1.8-43.7-13.5-49.4-37.4c-6.7-27.7,10.8-41,21.7-62.9c10.6-21.3-2.5-46.4-2.8-70.2c-0.4-26.6,21.1-41.2,25.1-65.7     c2.9-17.7-7.1-35.9,2.8-52.6c5.2-8.8,15-14.3,25-16.7C868.7,134.1,880.8,133.3,892.2,135z"/>
			<path style="fill:#17152B;" d="M880.8,541.7c-0.7,0-1.4-0.6-1.4-1.4V189.4c0-0.7,0.6-1.4,1.4-1.4c0.7,0,1.4,0.6,1.4,1.4v350.9     C882.2,541.1,881.6,541.7,880.8,541.7z"/>
			<path style="fill:#17152B;" d="M880.8,348.1c-0.5,0-1-0.3-1.2-0.8L841.1,263c-0.3-0.7,0-1.5,0.7-1.8s1.5,0,1.8,0.7l38.5,84.3     c0.3,0.7,0,1.5-0.7,1.8C881.2,348.1,881,348.1,880.8,348.1z"/>
			<path style="fill:#17152B;" d="M880.8,409c-0.3,0-0.5-0.1-0.8-0.2c-0.6-0.4-0.8-1.3-0.3-1.9l37.9-54.5c0.4-0.6,1.3-0.8,1.9-0.3     c0.6,0.4,0.8,1.3,0.3,1.9l-37.9,54.5C881.7,408.8,881.3,409,880.8,409z"/>
		</g>
		<g>
			<path style="fill:#0B0755;" d="M258.8,217.7c7,4.6,12.4,12.7,11.5,21c-0.6,5-3.3,10.2-1.1,14.7c1.5,3,4.7,4.7,6.9,7.1     c4.4,4.8,4.4,13-0.1,17.8c-3,3.2-7.7,5-9.7,8.9c-1,2-1.3,4.3-2.3,6.3c-2.1,4.1-7.3,5.9-11.9,5.5c-4.6-0.3-8.9-2.3-13.3-4     c-4.3-1.6-9.1-2.9-13.6-1.9c-7.4,1.8-12.7,9.5-20.3,9.5c-6.7,0-12-7-11.8-13.7s4.8-12.7,10.4-16.4c2-1.3,4.3-2.5,5.5-4.7     c1.9-3.7-0.4-8-1.9-11.8c-1.8-4.5-2.2-10.2,1.3-13.5c1-0.9,2.2-1.6,3.1-2.6c1.3-1.7,1.2-4,1.4-6.1c0.7-9.4,7.1-17.8,15.6-21.6     C238.4,208,250.1,212,258.8,217.7L258.8,217.7z"/>
			<path style="fill:#FDB07D;" d="M296.2,329.7l26.7,28.7l-3.6,7.1c0,0-30.7-18.9-36.1-32.9C278,318.6,296.2,329.7,296.2,329.7     L296.2,329.7z"/>
			<path style="fill:#FFFFFF;" d="M312,572.9l3.4-20.8l11-0.7l-2.2,22.6C324.2,574.1,314.9,575.8,312,572.9L312,572.9z"/>
			<path style="fill:#060633;" d="M324.4,572.5c0,0-5.3,1.8-12.4,0.4c0,0-20.7,7.9-20.3,14.1c0,0-1,1.8,8.4,1.8s23.9,0.1,24.3-0.1     C324.8,588.5,329.1,586.3,324.4,572.5L324.4,572.5z"/>
			<path style="fill:#FFFFFF;" d="M324.8,588.7c-0.4,0.2-15.2,0-24.7,0s-8.5-1.8-8.5-1.8c0-0.4,0-0.8,0.2-1.2l34.7-0.9     C326.3,587.9,325.1,588.6,324.8,588.7L324.8,588.7z"/>
			<path style="fill:#FFFFFF;" d="M384.6,572.9l-5.7-20.2l13.8-2.3l4.2,23.7C396.9,574.1,387.5,575.8,384.6,572.9L384.6,572.9z"/>
			<path style="fill:#060633;" d="M397,572.5c0,0-5.3,1.8-12.4,0.4c0,0-20.7,7.9-20.3,14.1c0,0-1,1.8,8.4,1.8s23.9,0.1,24.3-0.1     C397.4,588.5,401.8,586.3,397,572.5L397,572.5z"/>
			<path style="fill:#FFFFFF;" d="M397.5,588.7c-0.4,0.2-15.2,0-24.7,0s-8.5-1.8-8.5-1.8c0-0.4,0-0.8,0.2-1.2l34.7-0.9     C399,587.9,397.7,588.6,397.5,588.7L397.5,588.7z"/>
			<path style="fill:#060633;" d="M385.9,380l12,183.6h-18.7l-32.3-138.2l-18.4,138.2h-18c0,0,1.3-157.6,0-183.6     C309.1,354,385.9,380,385.9,380L385.9,380z"/>
			<path style="fill:#FDB07D;" d="M293.4,284l-27.6,21.4c0,0,5.6,17.1,12.1,15.5s29.8-19.6,29.8-19.6L293.4,284z"/>
			<path style="fill:#4774B5;" d="M361.2,251.2c0,0,34.7,10.4,40,19.7s6.6,34.3,6.6,34.3l-19.5,3.1l0.4,82.3c0,0-30.3,10.7-79.7,0     v-83.2l-5.8,3.6L286,286.5c0,0,24.3-27.6,36.2-31C342.7,249.6,361.2,251.2,361.2,251.2L361.2,251.2z"/>
			<path style="fill:#FDB07D;" d="M355,172.3c1.3-9.6,9.7-16.4,18.6-15.2s15.1,10.1,13.7,19.7c-1.3,9.6-9.7,16.4-18.6,15.2     C359.8,190.8,353.7,181.9,355,172.3L355,172.3z"/>
			<path style="fill:#FDB07D;" d="M335.6,183.6l6.5-0.8c5.6,14.5,18.8,14.9,23.1,14.6c0.1,0,0.2-0.1,0.2-0.3l0,0     c-0.3-2.1-1.6-3.9-3.5-4.9c-1.6-0.8-3.2-1.9-4.7-3.1c-9-7.4-1.3-20.3-1.3-20.3s34.1,6.6,28.1,16.5c-1.7,2.7-3.5,4.8-5.5,6.2     c-1.9,1.4-2.9,3.7-2.6,6.1l0,0c0.1,1.1,0.9,2.1,2,2.3c19.6,5.1,27.4-4.4,27.4-4.4l4.6,2.4c-4.3,13.9-20.1,18.8-20.1,18.8     c1.7,8.8,0.4,20.2,0.4,20.2l-41.6-4.3l3.9-20.6C335,204.3,335.6,183.6,335.6,183.6L335.6,183.6z"/>
			<path style="fill:#FDB07D;" d="M342.2,183.2c0,0,1.3-2.5-0.9-5.6c-0.9-1.3-0.2-4.3-1.2-4.5s-1.5,3.5-1.5,3.5s-1.5-2.3-2.1-3.2     s-1.8-2.9-2.5-2.6c-0.7,0.3,1.4,4.6,1.4,4.6s-3.1-4.3-3.8-4c-1.2,0.4,1.4,5,1.4,5s-2.9-3.7-3.4-3.9c-0.5-0.1-0.6,0.9,0.1,2.5     c0.7,1.5,1.8,2.8,1.8,2.8s-2-1.6-2.4-1.8s-1.5-0.9-0.2,1.3s5.2,5.8,7.9,7.4L342.2,183.2L342.2,183.2z"/>
			<path style="fill:#FDB07D;" d="M404.2,197.2c0,0-0.6-2.8,2.4-5.2c1.3-1,1.3-4.1,2.4-4c1,0.1,0.5,3.8,0.5,3.8s2.1-1.8,2.9-2.5     s2.5-2.3,3.1-1.8c0.6,0.4-2.6,4-2.6,4s4.2-3.2,4.8-2.8c1,0.7-2.7,4.4-2.7,4.4s3.9-2.8,4.4-2.8s0.4,1.1-0.7,2.3     c-1.1,1.3-2.5,2.2-2.5,2.2s2.4-1,2.8-1.1s1.7-0.4-0.1,1.3c-1.9,1.7-6.6,4.2-9.6,5L404.2,197.2L404.2,197.2z"/>
			<path style="fill:#060633;" d="M379.3,156c-0.9-1.2-2.2-2.2-3.7-2.6c-0.4,0.5-0.2,1.2,0.1,1.8c0.3,0.5,0.8,0.9,1.2,1.5     c-4.1-2.2-8.7-3.3-13.3-3.2c-0.7,0-1.4,0-2.1,0.3c-0.6,0.3-1.2,0.8-1.3,1.5c-0.2,1.1,0.8,2,1.8,2.6c1.9,1.1,4.1,1.8,6.4,1.9     c-1.1,0.2-2.4,0.6-2.6,1.6s0.7,1.8,1.6,2.3c2.5,1.2,5.5,0.6,8.2,0s6.2-0.2,8.4-0.3c-0.1-1.3-2-3-2.4-3.7     C381,158.5,380.3,157.3,379.3,156L379.3,156z"/>
			<path style="fill:#FFFFFF;" d="M363.2,280.1c0,0-5.6,10.4-4.2,11.2c1.4,0.8,15.4-3.7,15.4-3.7l-1.6-6.8L363.2,280.1L363.2,280.1z     "/>
			<path style="fill:#FFFFFF;" d="M326.4,275.9c0,0-5.6,10.4-4.2,11.2c1.4,0.8,15.4-3.7,15.4-3.7l-1.6-6.8L326.4,275.9L326.4,275.9z     "/>
			<path style="fill:#060633;" d="M390.3,235.9c0,0-0.4,13-4.9,19.7c-4.5,6.8-12,14.2-10.9,27.1l-13.8-0.6c0,0-2.1-17.5,1.9-24.9     s1-9,1-9s-18.7,0.9-22,6.2c-3.3,5.4-4.6,23.6-4.6,23.6l-12.9-1.8c0,0-0.5-27.3,4.1-32.7s23-13,23-13L390.3,235.9L390.3,235.9z"/>
			<path style="fill:#FFFFFF;" d="M377.4,199.8c0,0-9.4,1.9-14-2.3c0,0-9.2-0.9-10.1-2.2l-5.1,15.4l3.2,1.8l-4.1,18.6     c0,0,2.7,2.9,8.9,4c6.2,1.1,35.6,0.8,35.6,0.8l-0.8-19.7l6.2-2.2c0,0-5.1-7.9-6.2-13.6C391,200.6,379.7,200.4,377.4,199.8     L377.4,199.8z"/>
			<path style="fill:#FDB07D;" d="M405.8,305.2c0,0-0.3,36.7-11,38.1c-10.7,1.3-27-26.1-35.3-50.8l9.8-1.8l15,17.6V303     C384.2,302.9,400.8,302.3,405.8,305.2L405.8,305.2z"/>
			<path style="fill:#FDB07D;" d="M338,210.8L338,210.8c0-0.2,0-0.5,0.1-0.7c1-10.6,11.1-18.4,22.2-16.7c9.3,1.4,16.2,9.2,16.2,18.3     c0,3.4-0.9,6.5-2.5,9.2c-2.2,4.2-4.1,7.7-6,10.7c-3.2,4.9-4.6,10.6-4.2,16.4l0.4,4.5c-12.3,5-17.2-1.1-17.2-1.1l0.6-8.2     c0.1-1.1-0.7-2-1.8-2.2l0,0C331.2,238.8,337.4,217.2,338,210.8L338,210.8z"/>
			<polygon style="fill:#060633;" points="378,214.9 371.6,227 368.2,226 367.6,209.6    "/>
			<path style="fill:#060633;" d="M341.7,203.9c0,0-2.9,1.6-4.7,12.8c0,0,0.2-12.6,1.8-13.9C340.5,201.6,341.7,203.9,341.7,203.9     L341.7,203.9z"/>
			<path style="fill:#060633;" d="M380.1,209.4c0.1-2.4-0.4-4.7-1-7c-0.7-2.3-2-4.4-4.1-5.6c-0.9-0.5-2-0.9-2.7-1.7     c-0.4-0.6-0.6-1.3-0.9-2c-1.4-2.6-4.9-3-7.8-2.5c-2.9,0.6-5.8,1.8-8.7,1.3c-3.2-0.6-6.4-3.2-9.4-2c-1,0.4-1.8,1.2-2.8,1.7     c-1.9,1-4.2,1-6.4,1.1c-2.2,0.1-4.5,0.6-5.8,2.4c-1.5,2-0.5,5.4,1.8,6.3c0.4,0.2,0.9,0.3,1.3,0.6c1.7,1.2,0.6,4.3,2.2,5.7     c0.8,0.7,2,0.8,3.1,0.6s2.1-0.6,3.2-0.5c2.4,0.1,4.2,2.3,6.5,2.8c3.3,0.7,6.4-2,9.8-2c5,0.1,7.9,5.9,12.7,7.4     C376.8,217.8,379.9,214.5,380.1,209.4L380.1,209.4z"/>
			<path style="fill:#FDB07D;" d="M242.4,494.5c0,0-14.3,68.6-9.3,75.6s12.8,14.1,13,17.8s-25.9-4.8-27.6-8.8     c-1.8-4-0.4-9.9,0.1-27.1c0.5-17.2,4.3-52.3,4.3-52.3L242.4,494.5L242.4,494.5z"/>
			<path style="fill:#0B0755;" d="M246,587.9c-0.1-2.5-3.8-6.6-7.7-11.2c-2.3,7.5-16.1-2.9-20.7-6.8c-0.2,4.4-0.2,7.1,0.8,9.1     C220.2,583.1,246.2,591.6,246,587.9L246,587.9z"/>
			<path style="fill:#FDB07D;" d="M273.4,495.1c0,0-3,70,3,76.1c6,6.1,14.9,11.9,15.7,15.5c0.8,3.6-26.3-0.6-28.7-4.3     c-2.4-3.7-2-9.7-4.3-26.7s-4.2-52.3-4.2-52.3L273.4,495.1L273.4,495.1z"/>
			<path style="fill:#0B0755;" d="M292.1,586.8c-0.5-2.5-4.8-5.9-9.4-9.8c-1.1,7.8-16.3-0.3-21.6-3.4c0.5,4.4,1,7,2.2,8.9     C265.8,586.2,292.9,590.4,292.1,586.8L292.1,586.8z"/>
			<path style="fill:#FDB07D;" d="M368.9,292.6c0,0,1.9-9,1.8-12.2s2.2-6.3,0.4-6.9c-1.8-0.6-4,5.1-4,5.1s-3.1-5.7-3.8-7.5     c-0.7-1.9-2.8-4.9-4.2-4.5c-1.4,0.4,2.6,9.2,2.6,9.2s-4.1-7.1-5.5-7s2.5,9.9,2.5,9.9s-4-7.8-4.8-8.1c-0.8-0.3-1.3,0.7-0.6,3.8     c0.7,3.1,2.3,6.1,2.3,6.1s-3.2-5.3-3.8-5.8c-0.6-0.5-1.8-0.7-0.2,3.7c1.6,4.5,6.6,13.6,10.9,17.1L368.9,292.6L368.9,292.6z"/>
			<path style="fill:#EB7D2B;" d="M258.4,269.8c0,0,12.5,0.7,16.5,6.1c6.5,8.7,18.2,50.4,23.9,54c0,0-10.3,6.3-15.7,8     c0,0-8.3-15.3-10.7-20.9c0,0,0.7,21.3,1.7,23.3s17.7,18.4,16.4,47.7c-1.3,29.4-4.5,120.2-4.5,120.2h-69.7     c0,0,3.3-108.8,4.7-122.2c1-9.6,9.2-25.2,13.8-33.1c1.8-3.2,2-7,0.4-10.3L223,317l-6.7,29l-14.6-2.1c0,0,2.8-58.1,11.6-65.3     C226.6,267.6,258.4,269.8,258.4,269.8L258.4,269.8z"/>
			<path style="fill:#FFFFFF;" d="M229.2,271.8c0,0-17.5,11.6,25.2,19.8c0,0,17.5-17.3,3.2-21.7l-11.2,5.3L229.2,271.8L229.2,271.8z     "/>
			<path style="fill:#FDB07D;" d="M250.4,267.2l-0.9-8.5c11.3-2.6,7.5-23.5,6.8-29.8l0,0c0-0.2,0-0.5-0.1-0.7     c-1.1-10.2-10.4-17.5-20.6-16.1c-9.3,1.3-16.3,9.7-15.8,19.1c0.2,3,1,5.8,2.5,8.2c3.2,6.1,5.9,11,8.9,14.4     c3,3.4,4.6,7.9,4.5,12.4l0,0c-0.1,2.5-1.9,4.6-4.3,5.1l-2.1,0.4l25.2,19.8l3.2-21.7l-4.7-0.2     C251.6,269.6,250.5,268.5,250.4,267.2L250.4,267.2z"/>
			<path style="fill:#0B0755;" d="M235.5,230.9c-2,2.5-3.6,5.2-5.3,8c-1.7,2.9-3.6,5.9-3.6,9.3c-3.2-1.9-5.4-5.1-7.4-8.2     c-0.9-1.5-1.8-3-2.2-4.7c-0.6-2.4-0.3-4.9,0.1-7.3c0.4-3.1,0.9-6.4,2.7-9c1.2-1.7,2.9-3,4.7-4.1c4.2-2.5,9-4.1,13.9-3.9     c4.9,0.1,9.8,2.1,13,5.7c4.2,4.6,5.4,11.2,6.3,17.4c-0.9-2.5-2.9-4.5-4.7-6.4c-1.2-1.2-2.5-2.5-4.1-3.2c-2.7-1.3-3.3-0.9-8-3.4     C240.1,225.1,238,227.7,235.5,230.9L235.5,230.9z"/>
			<path style="fill:#060633;" d="M272.4,317.2c-0.1,0-0.2,0-0.2-0.1c-0.1-0.1,0-0.3,0.1-0.3s6-3.6,3.8-13c-1-4.5-7.5-8-7.6-8     c-0.1-0.1-0.2-0.2-0.1-0.3c0.1-0.1,0.2-0.2,0.3-0.1c0.3,0.1,6.7,3.6,7.8,8.3C278.8,313.4,272.5,317.2,272.4,317.2     C272.5,317.2,272.4,317.2,272.4,317.2L272.4,317.2z"/>
			<path style="fill:#060633;" d="M241.3,318.5c-5.1,0-10-3.6-10.3-3.8c-0.1-0.1-0.1-0.2,0-0.3c0.1-0.1,0.2-0.1,0.3,0     s7,5.1,12.6,3.3c5.7-1.8,8-8.5,8-8.5c0-0.1,0.2-0.2,0.3-0.1c0.1,0,0.2,0.2,0.1,0.3c0,0.1-2.4,7-8.3,8.8     C243.2,318.4,242.2,318.5,241.3,318.5L241.3,318.5z"/>
			<path style="fill:#FDB07D;" d="M291.7,418.7c0,0,0.6,37.3,6.5,53.8l-6.5,2.3c0,0-11.1-21-11.4-48.5     C279.9,398.7,291.7,418.7,291.7,418.7L291.7,418.7z"/>
			<path style="fill:#FDB07D;" d="M290.6,472.4c0,0,1.2,7.2,2.3,9.4c1.1,2.2,1.5,5.6,2.9,5.5c1.4-0.2,0.2-5.4,0.2-5.4s4,3,5.1,4.1     s2.6,2.2,3.4,1.5c0.9-0.7-3.7-5.3-3.7-5.3s5.1,3.7,6.1,3.2c0.9-0.5-4.9-6.1-4.9-6.1s5.3,4.2,6,4.2s0.7-0.9-0.8-2.9     c-1.5-1.9-3.5-3.5-3.5-3.5s3.9,2.7,4.5,2.8c0.6,0.2,1.5-0.1-1-2.7s-6.4-4.3-9.9-8.5L290.6,472.4L290.6,472.4z"/>
			<path style="fill:#FDB07D;" d="M228.7,475.7c0,0,3.6,6.4,4.1,8.8s2.4,5.3,1.2,6.1c-1.2,0.8-3.5-4.1-3.5-4.1s-1.2,4.8-1.4,6.4     c-0.2,1.5-0.6,3.4-1.7,3.3c-1.1,0-0.4-6.5-0.4-6.5s-1.7,6.1-2.7,6.3c-1.1,0.2-0.1-7.8-0.1-7.8s-1.5,6.6-2,7     c-0.6,0.4-1.1-0.3-1.2-2.7c0-2.4,0.5-5,0.5-5s-1.4,4.5-1.7,5c-0.4,0.5-1.2,0.9-0.9-2.7s2.3-7.4,2.4-12.9L228.7,475.7L228.7,475.7     z"/>
			<path style="fill:#FFFFFF;" d="M283.4,565.4c0,0-0.6,13.2-0.5,13.4s-1,1.8-1,1.8l-4.2,0.6l-3.7-1.9c0,0,0.7-12.3,0.4-14.2     C274,563.2,283.4,565.4,283.4,565.4L283.4,565.4z"/>
			<path style="fill:#060633;" d="M274,579.3c0,0,4.7,1.8,8.9-0.8c0,0,15.8,6.5,15.2,11c0,0,0.6,1.4-6.3,0.9s-17.7-1.2-17.9-1.3     C273.6,588.9,272.2,589.6,274,579.3L274,579.3z"/>
			<path style="fill:#FFFFFF;" d="M249.5,565.4c0,0-0.6,13.2-0.5,13.4s-1,1.8-1,1.8l-4.2,0.6l-3.7-1.9c0,0,0.7-12.3,0.4-14.2     C240.1,563.2,249.5,565.4,249.5,565.4L249.5,565.4z"/>
			<path style="fill:#060633;" d="M240.1,579.3c0,0,4.7,1.8,8.9-0.8c0,0,15.8,6.5,15.2,11c0,0,0.6,1.4-6.3,0.9s-17.7-1.2-17.9-1.3     C239.6,588.9,238.3,589.6,240.1,579.3L240.1,579.3z"/>
			<path style="fill:#060633;" d="M288.7,470c0,0,5.3,31.5,3.6,58.9c-1.7,27.4-6.4,45-6.4,45h-14.1c0,0,4.3-88.3-4.3-89.7     c-8.6-1.4-0.6,22.7-16.3,87.9l-12.9-0.4c0,0,2.9-65.7,0-98.9L288.7,470L288.7,470z"/>
			<path style="fill:#FFFFFF;" d="M269.2,384.4c0,0,14.7,6.1,19.3,13.3c4.6,7.1,8.4,22.6,8.4,22.6s-6,3.9-12.4,2.9     c0,0,0.7,36.9,5.6,47.4c0,0-2.7,6.1-15.6,6.3c-13,0.2-28.9-1.9-31.2-0.8s-6.9,2.3-6.9,2.3s-2.4-33-2.7-50.1     c-0.1-7.6-2.5-6.9-2.5-6.9l-9.9-6.4c0,0,6.1-22,15.2-25.9c9.1-3.9,18.3-4.7,18.3-4.7L269.2,384.4L269.2,384.4z"/>
			<path style="fill:#FDB07D;" d="M279.7,345.9L279.7,345.9c0-0.2,0-0.5,0-0.7c0-10.3-8.5-18.5-18.8-18.2     c-9.5,0.3-17.3,8.2-17.5,17.7c-0.1,2.8,0.5,5.5,1.6,7.9c3.8,9.7,6.2,16.4,11.2,19.5c0.9,0.6,1.4,1.6,1.4,2.7v4.6c0,2-1,3.9-2.6,5     l0,0c10,3.9,14.3,0,14.3,0l0,0c-1.5-1.3-2.4-3.1-2.4-5.1v-2.5c0-1.6,1.1-2.9,2.7-3.1l0,0C286.8,371,279.7,352.2,279.7,345.9     L279.7,345.9z"/>
			<path style="fill:#060633;" d="M250,358.8c0,0,5.6-11.8,5-18.1l-11.5-1c0,0-2.8,9.7,3.4,17.9L250,358.8L250,358.8z"/>
			<path style="fill:#060633;" d="M242.5,337.5c-1.2-1.6-1.8-3.7-1.7-5.7c1-0.4,2.2,0.1,2.8,1c0.6,0.8,0.9,1.9,1.1,3     c0-2.7,2.3-4.6,4.3-6c2.4-1.7,5-3.5,8-4c4.1-0.8,8.4-0.2,12.5,0c3.1,0,6.2,0.4,9.3,0.4c0.6,0,1.2,0.1,1.8,0.1     c0.9,0.1,2.6-0.3,2.6,1c0,1.5-0.9,2.8-2.1,3.7c-1.1,0.9-2.4,1.4-3.8,1.9c0.8-0.1,1.5,0,2.3,0.2c0.9,0.2,1.9,0.5,2.8,0.9     c0.5,0.2,1,0.5,1.2,1c0.1,0.3,0.2,0.6,0.1,0.8c-0.2,2.7-3.2,4.5-5.4,5.3c-7.1,2.6-15,0.7-22.5,1c-3.4,0.1-7.4,1.2-10.7,0.2     c-1.1-0.3-3.8-2-4.7-3.5c-0.3-0.5,0-1.1,0.6-1.1C241.4,337.7,242,337.6,242.5,337.5L242.5,337.5z"/>
			<path style="fill:#060633;" d="M277.2,341.4c0,0,1.9,3,2.7,6.8c0,0,0.7-6.5-0.6-8.5C278.1,337.7,277.2,341.4,277.2,341.4     L277.2,341.4z"/>
			<path style="fill:#FDB07D;" d="M233.6,420.8c0,0-7.5,45.4-4.8,57.4l-7.4,0.2c0,0-5.3-30,1.7-64.3L233.6,420.8L233.6,420.8z"/>
			<path style="fill:#FFFFFF;" d="M228.4,398.1c0,0-6.8,14.7-8.5,22.3c0,0,8.2,6.1,13.8,5.6s5.6-4.5,5.6-4.5l-5.6-16L228.4,398.1     L228.4,398.1z"/>
			<path style="fill:#FDB07D;" d="M216.3,346c0,0,11.4,32,17.6,45.4l-4.8,5c0,0-26.2-33.7-26.1-52.4L216.3,346L216.3,346z"/>
			<path style="fill:#FDB07D;" d="M230.2,387.3c0,0,6.7,1.8,8.8,2.9s5,0.7,4.8,2.1s-4.8,1-4.8,1s2.8,4,3.8,5.1s2.4,3.6,1.6,4.4     c-0.7,0.8-5.4-4.8-5.4-4.8s3.4,5.1,2.9,6.1c-0.5,0.9-5.8-5-5.8-5s3.9,5.3,3.8,6c-0.1,0.7-0.9,0.6-2.8-0.9     c-1.8-1.5-3.3-3.6-3.3-3.6s2.5,3.9,2.6,4.5s-0.1,1.5-2.6-1.1s-6.9-9-7.9-13.1L230.2,387.3L230.2,387.3z"/>
			<path style="fill:#FDB07D;" d="M452.2,474.1c0,0,9,10.8,12.2,24.7l5.3-0.3c0,0-2.8-21.4-9.7-31.1     C460.1,467.4,455.4,472.8,452.2,474.1L452.2,474.1z"/>
			<path style="fill:#FDB07D;" d="M447.7,515.5c0,0,1.6,51.9-2.9,71.6c0,0-12,4.5-13.6,3.2c-1.7-1.3,3.5-4,4.2-8.2     s-3.2-60.1-3.2-60.1L447.7,515.5L447.7,515.5z"/>
			<path style="fill:#FDB07D;" d="M464.8,497.6c0,0-1.8,4.4-2.2,6.1c-0.3,1.7-1.9,3.2-1,3.7s2.8-2.3,2.8-2.3s1,3.4,1.2,4.5     s0.9,3,1.7,2.9c0.8-0.1-0.3-5.3-0.3-5.3s1.4,4.3,2.1,4.4c0.8,0.1-0.2-5.6-0.2-5.6s1.2,4.7,1.7,5c0.4,0.3,0.8-0.2,0.8-2     s-0.5-3.5-0.5-3.5s1.1,3.2,1.4,3.6c0.3,0.3,0.9,0.6,0.6-2s-2-8.1-3.9-10.5L464.8,497.6L464.8,497.6z"/>
			<path style="fill:#FDB07D;" d="M417.5,515.5c0,0,1.6,51.9-2.9,71.6c0,0-12,4.5-13.6,3.2c-1.7-1.3,3.5-4,4.2-8.2S402,522,402,522     L417.5,515.5L417.5,515.5z"/>
			<path style="fill:#060633;" d="M415.4,582.5c-0.9,0.7-2.1,1.6-3.7,2.9c-2.8,2.4-7,1.6-8.9,1c-1.5,1.8-2.9,3-1.9,3.8     c1.7,1.3,13.6-3.2,13.6-3.2C414.9,585.7,415.2,584.2,415.4,582.5L415.4,582.5z"/>
			<path style="fill:#060633;" d="M445.7,582.5c-0.9,0.7-2.1,1.6-3.7,2.9c-2.8,2.4-7,1.6-8.9,1c-1.5,1.8-2.9,3-1.9,3.8     c1.7,1.3,13.6-3.2,13.6-3.2C445.1,585.7,445.4,584.2,445.7,582.5L445.7,582.5z"/>
			<path style="fill:#4774B5;" d="M452.3,502c0,0,19.4,26.7,23.4,34.2c4.1,7.5-17.6,14.2-23.4,9.7c-5.9-4.5-14.1-0.3-18.4,1.4     c-4.4,1.7-6.2,8.8-17.3,5.2c-11.1-3.6-16.8-9.3-24.6-10.2c-7.8-0.9-17.6-4.8-17.6-5.5s30.2-36.2,30.2-36.2L452.3,502L452.3,502z"/>
			<path style="fill:#FDB07D;" d="M405.6,455.4c0,0-13.8,28.9-25.8,33.2l1.7,4.8c0,0,24.5-7.1,30.2-27L405.6,455.4L405.6,455.4z"/>
			<path style="fill:#FFFFFF;" d="M448.8,473.5l3.4,28.5c0,0-23.2,7.2-47.7-1.2l3.1-31.3l-10-4.4c0,0,7.6-15.2,12.1-17.7     c4.6-2.4,19.8-9,32.5-3.8c12.6,5.2,21.1,22.2,21.1,22.2s-6.6,8.8-12.2,10.5L448.8,473.5L448.8,473.5z"/>
			<path style="fill:#0B0755;" d="M456.1,423.6c0.6,1.3,0.9,2.8,1.4,4.1c0.2,0.5,0.4,1,0.8,1.3c0.7,0.8,1.9,0.9,2.9,1.3     c4.5,1.4,7.1,7.1,5.2,11.4c-0.3,0.7-0.7,1.4-1.5,1.6c-0.7,0.2-1.4-0.1-2.1-0.1c-2.2-0.1-3.9,1.9-5.8,3.1     c-2.2,1.4-5.2,1.4-7.5,0.2c-2.3-1.2-3.9-3.7-4.1-6.3c-0.1-0.8,0-1.7,0.5-2.4c0.4-0.6,1-1,1.5-1.4c1.4-1.3,2-3.4,1.8-5.3     s-1-3.7-2.1-5.4c-0.8-1.3-1.8-2.5-2.1-4C444.1,414.8,454.7,420.4,456.1,423.6L456.1,423.6z"/>
			<path style="fill:#0B0755;" d="M404.5,423.8c-0.1,0.7-0.1,1.5-0.5,2.1c-0.8,1.3-2.6,1.2-4,1.6c-1.7,0.5-3.1,2.2-3.3,4     c-0.2,1.3,0.2,2.7-0.2,4c-0.9,2.9-5.2,3.5-6.1,6.3c-0.5,1.7,0.5,3.6,1.9,4.6s3.3,1.3,5,1.5c2.5,0.2,5.1,0.1,7.4-1     s4.2-3.3,4.3-5.8c0.1-1.2-0.2-2.4,0.2-3.5c0.9-2.3,4.3-2.4,5.8-4.4c1.5-2.1,0.2-4.9-0.1-7.4c-0.2-1.5-0.1-3.1-0.4-4.7     C413.1,413.3,405,418.1,404.5,423.8L404.5,423.8z"/>
			<path style="fill:#0B0755;" d="M411.8,416.9c-0.1-2.9-0.1-5.8,0.7-8.5c3.3-10.5,19.8-12.8,27.5-6.3c3.3,2.8,6.1,6.9,7.3,11.1     c1.5,5,0.1,11-4.1,14c-3,2.1-6.9,2.6-10.5,2.1c-3.6-0.4-7.1-1.6-10.7-2.5c-1.7-0.4-3.4-0.7-5-1.5c-1.2-0.6-3.3-1.3-4.1-2.3     C411.6,421.5,411.8,418.6,411.8,416.9L411.8,416.9z"/>
			<path style="fill:#FDB07D;" d="M412.2,418.3c-0.7-9.4,5.7-17.6,14.4-18.2c8.7-0.7,16.4,6.4,17.1,15.8s-5.7,17.6-14.4,18.2     C420.6,434.7,412.9,427.7,412.2,418.3L412.2,418.3z"/>
			<path style="fill:#FDB07D;" d="M433.9,434.5c-1.5,1.7-0.4,7.6-0.4,7.6c0.1,2.9-10.5,3.1-10.6,0.4c0.6-2.2,1.3-6.5-0.7-7     c-1.7-0.4-2.9-1-4.6-1.8c-10-5.1-5.5-18.9-5.5-18.9s33.6-0.8,30,9.7C441.2,427.4,435.5,432.7,433.9,434.5L433.9,434.5z"/>
			<path style="fill:#0B0755;" d="M441.5,423.2c-0.4,0.2-3.8-5.1-6.2-10.6c-2.4-5.5-8.3-7.9-8.3-7.9s-11.3,2.7-12.7,5.1     c-1.5,2.4-2.5,7-2.5,7s0-7.4,3.8-11.7c3.8-4.3,9.9-7.7,20-4.1C445.6,404.6,447,421.3,441.5,423.2L441.5,423.2z"/>
			<path style="fill:#FDB07D;" d="M381.1,488.6c0,0-4.6-1.2-6.3-1.2c-1.7-0.1-3.4-1.4-3.8-0.5s2.7,2.4,2.7,2.4s-3.2,1.5-4.3,1.8     c-1.1,0.3-2.8,1.4-2.6,2.2c0.2,0.8,5.1-1.1,5.1-1.1s-4,2-4,2.8s5.5-1,5.5-1s-4.4,1.9-4.6,2.4s0.4,0.7,2.1,0.4     c1.7-0.3,3.4-1.1,3.4-1.1s-3,1.6-3.3,1.9s-0.5,1,2,0.2c2.5-0.7,7.7-3.1,9.7-5.4L381.1,488.6L381.1,488.6z"/>
			<path style="fill:#EB7D2B;" d="M350.8,564.8c0,0-1.8,7.9-3.1,11.5c-1.3,3.6,3.6,5.6,1.7,7.8s-5.2,0-6.8-3.7     c-1.6-3.7-2.6-12.1-2.6-12.1L350.8,564.8L350.8,564.8z"/>
			<path style="fill:#EB7D2B;" d="M366.8,511.4c-1.5-1.1-8.4-11.4-4.4-13.3s5.1,0.3,5.2,4.1c0.1,3.7,2,7.4,2,7.4L366.8,511.4     L366.8,511.4z"/>
			<path style="fill:#FDA769;" d="M373.1,533.6c-0.7-5.3-13.2-12.9-10.1-19.8c3.1-6.9,10-8,14.9-9.5s5.1-7.2,7.7-6.7     s3.1,10.8-1.5,22.5l2.8,9.2c0,0,3.6,0.3,6.3-1.1c2.7-1.4,6-5.5,7.3-5.3s2.8,3.1,0.2,6.3c-2.6,3.1-9.2,5.9-9.2,5.9s7.1,3,10.3,2.4     c3.2-0.6,4.6-3.6,6.7-0.8s-4,7.1-8.5,8.3s-10.9,0.7-10.9,0.7s-5.2,11.7-17.6,18.5s-23.6,5.4-23.6,5.4s-4.4,5.1-8.9,7.7     c-4.5,2.5,1.9,9.4-1.6,11.4c-3.5,1.9-7.5-4.9-7.5-8.2s3-8.2,2.6-11c-0.4-2.9-2.4-8.4-2.4-8.4s-10.4-3.8-13.2-9.1     c-2.8-5.2-3-13,1-13.4s4,18.8,13.4,17.4c0,0,3.1-4.4,8.6-6.6c5.5-2.2,11.1,3.4,20.3-2.5C369.4,540.6,373.1,533.6,373.1,533.6     L373.1,533.6z"/>
			<path style="fill:#060633;" d="M375.5,511.6c-0.5-0.7-1.4-0.9-2.1-0.5c-0.7,0.5-0.9,1.4-0.5,2.1c0.5,0.7,1.4,0.9,2.1,0.5     C375.7,513.2,375.9,512.3,375.5,511.6L375.5,511.6z"/>
			<path style="fill:#060633;" d="M386.9,495.7c-0.7-1.1-2.2-1.4-3.3-0.7c-1.1,0.7-1.4,2.2-0.7,3.3c0.7,1.1,2.2,1.4,3.3,0.7     C387.3,498.3,387.6,496.8,386.9,495.7L386.9,495.7z"/>
			<path style="fill:#EB7D2B;" d="M368.1,515.6c0.7,1.3-7,2.7-7.1,6.1c-0.1,3.4-4.2,12-8.7,9.2c-4.5-2.9,0.3-10.4,5.6-13.7     C363.1,513.8,366.6,512.8,368.1,515.6L368.1,515.6z"/>
		</g>
		<g>
			<path style="fill:#3E8D7C;" d="M910.7,571.9L910.7,571.9c-0.3-0.2-0.4-0.5-0.3-0.7c33.6-61.9,61.4-104.8,78.2-120.8     c0.4-0.4,0.6-0.6,0.8-0.7c0.2-0.2,0.5-0.2,0.7-0.1c0.2,0.2,0.2,0.5,0.1,0.7c-0.1,0.2-0.4,0.4-0.8,0.8     c-16.8,15.9-44.5,58.7-78,120.5C911.2,571.9,911,572,910.7,571.9z"/>
			<path style="fill:#3E8D7C;" d="M998.4,448.9c-2,1.8-10.5,4-11,3.4s2.6-8.8,4.6-10.6c2-1.8,5-1.6,6.8,0.4     C1000.5,444.1,1000.4,447.1,998.4,448.9z"/>
			<path style="fill:#3E8D7C;" d="M982.2,452.2c0.2,2.7-3.2,11-4,11.1s-5.6-7.6-5.8-10.3c-0.2-2.7,1.8-5.1,4.5-5.3     C979.6,447.5,981.9,449.5,982.2,452.2z"/>
			<path style="fill:#3E8D7C;" d="M988.2,469.2c-2.7-0.4-10-5.6-9.9-6.4s8.6-3.7,11.3-3.4c2.7,0.4,4.6,2.9,4.2,5.5     S990.9,469.6,988.2,469.2z"/>
			<path style="fill:#3E8D7C;" d="M950.4,491.2c0.9,4.5-3.3,19-4.6,19.2c-1.3,0.3-10.7-11.6-11.6-16.1c-0.9-4.5,2-8.8,6.5-9.7     C945.2,483.9,949.5,486.8,950.4,491.2z"/>
			<path style="fill:#3E8D7C;" d="M963.6,518.7c-4.5-0.1-17.8-7.5-17.7-8.8c0-1.3,13.7-7.8,18.2-7.6c4.5,0.1,8.1,4,8,8.5     C971.9,515.2,968.1,518.8,963.6,518.7z"/>
			<path style="fill:#3E8D7C;" d="M935.4,505.4c2.3,5.1,1.1,23.6-0.3,24.2c-1.5,0.6-15.9-11-18.1-16.1c-2.3-5.1,0-11,5.1-13.3     C927.2,498,933.1,500.3,935.4,505.4z"/>
			<path style="fill:#3E8D7C;" d="M954.8,541.7c-5.5-0.8-20.7-11.4-20.5-13s17.7-7.8,23.2-7s9.4,5.8,8.6,11.3     C965.4,538.6,960.3,542.4,954.8,541.7z"/>
			<path style="fill:#3E8D7C;" d="M923.7,525.4c2.3,5.1,1.1,23.6-0.3,24.2c-1.5,0.6-15.9-11-18.1-16.1c-2.3-5.1,0-11,5.1-13.3     C915.5,518,921.5,520.3,923.7,525.4z"/>
			<path style="fill:#3E8D7C;" d="M943.2,561.7c-5.5-0.8-20.7-11.4-20.5-13s17.7-7.8,23.2-7s9.4,5.8,8.6,11.3     C953.8,558.6,948.7,562.5,943.2,561.7z"/>
			<path style="fill:#3E8D7C;" d="M902.4,549.2c4,3.8,10,21.4,8.9,22.5s-18.9-4.1-22.9-7.9c-4-3.8-4.2-10.2-0.3-14.3     C892,545.5,898.3,545.4,902.4,549.2z"/>
			<path style="fill:#3E8D7C;" d="M932.4,581.7c-5.6-0.1-21.9-8.7-21.9-10.3s16.6-9.9,22.1-9.9c5.6,0.1,10,4.6,10,10.2     C942.5,577.3,938,581.8,932.4,581.7z"/>
			<path style="fill:#3E8D7C;" d="M972.3,464.3c0.2,2.7-3.2,11.2-4,11.3c-0.8,0.1-5.7-7.7-5.9-10.4c-0.2-2.7,1.8-5.2,4.5-5.4     C969.7,459.6,972.1,461.6,972.3,464.3z"/>
			<path style="fill:#3E8D7C;" d="M978.1,481.8c-2.7-0.4-10.2-5.7-10.1-6.5c0.1-0.8,8.8-3.8,11.5-3.4s4.6,2.9,4.2,5.6     C983.4,480.3,980.8,482.2,978.1,481.8z"/>
			<path style="fill:#3E8D7C;" d="M961.7,475.3c0.7,3.9-3.3,16.3-4.4,16.4c-1.1,0.2-8.9-10.2-9.6-14.1c-0.7-3.9,1.9-7.5,5.8-8.2     C957.4,468.9,961.1,471.5,961.7,475.3z"/>
			<path style="fill:#3E8D7C;" d="M971.6,500.5c-3.9-0.5-14.5-8.1-14.3-9.2s12.4-5.4,16.3-4.8c3.9,0.5,6.6,4.1,6,8     C979.1,498.4,975.5,501.1,971.6,500.5z"/>
		</g>
		<g>
			<path style="fill:#317F6C;" d="M137.3,583.9c0,0,38.3-96.3-136.3-133.9C0.9,450,31.9,631.4,137.3,583.9z"/>
			<path style="fill:#3E8D7C;" d="M0.7,449.8l139.2,121.3C143.5,543.8,136.5,479.1,0.7,449.8z"/>
			<path style="fill:#060633;" d="M134.4,566.6c-0.2,0.1-0.6,0.1-0.8-0.1L0.2,450.3c-0.3-0.2-0.3-0.7-0.1-1c0.3-0.3,0.7-0.3,1-0.1     l133.4,116.2c0.3,0.2,0.3,0.7,0.1,1C134.5,566.5,134.4,566.6,134.4,566.6z"/>
			<path style="fill:#060633;" d="M70.6,511.1c-0.1,0.1-0.2,0.1-0.3,0.1L21.2,512c-0.4,0-0.7-0.3-0.7-0.7c0-0.4,0.3-0.7,0.7-0.7     l49.1-0.9c0.4,0,0.7,0.3,0.7,0.7C71,510.7,70.9,510.9,70.6,511.1z"/>
			<path style="fill:#060633;" d="M99.2,536L99.2,536c-0.5,0.1-0.9-0.1-1-0.4l-16.6-45.3c-0.1-0.4,0-0.8,0.4-0.9s0.8,0.1,0.9,0.4     l16.6,45.3C99.6,535.4,99.5,535.8,99.2,536z"/>
		</g>
		<g>
			<path style="fill:#3E8D7C;" d="M141.1,574c0,0-25.8-70-137.4-6.2C3.6,567.9,107.4,650.1,141.1,574z"/>
			<path style="fill:#317F6C;" d="M3.6,567.9l137.4,6.2C141.1,574,120.2,651.4,3.6,567.9z"/>
			<path style="fill:#060633;" d="M42.3,582.7L42.3,582.7l29.2-12.6c0.2-0.1,0.3-0.4,0.2-0.6c-0.1-0.2-0.4-0.3-0.6-0.2L42,581.9     c-0.2,0.1-0.3,0.4-0.2,0.6C41.8,582.7,42.1,582.8,42.3,582.7z"/>
			<path style="fill:#060633;" d="M89.8,594.2C89.8,594.2,89.9,594.2,89.8,594.2l36.8-20.5c0.2-0.1,0.3-0.4,0.2-0.6     c-0.1-0.2-0.4-0.3-0.6-0.2l-36.7,20.5c-0.2,0.1-0.3,0.4-0.2,0.6C89.4,594.2,89.6,594.3,89.8,594.2z"/>
		</g>
		<g>
			<path style="fill:#317F6C;" d="M141.9,583.3L141.9,583.3c-0.4-0.1-0.5-0.3-0.5-0.6c14.1-69,28.2-118.2,39.7-138.3     c0.3-0.4,0.4-0.8,0.5-0.9c0.1-0.2,0.4-0.4,0.6-0.3c0.2,0.1,0.4,0.4,0.3,0.6c-0.1,0.2-0.3,0.5-0.6,1     c-11.4,20.1-25.5,69.1-39.6,138C142.4,583.2,142.1,583.3,141.9,583.3z"/>
			<path style="fill:#317F6C;" d="M190,440.1c-1.4,2.3-8.9,6.9-9.5,6.5s-0.1-9.2,1.3-11.4c1.4-2.3,4.3-3,6.6-1.6     C190.7,434.9,191.4,437.9,190,440.1z"/>
			<path style="fill:#317F6C;" d="M175.4,448c1,2.5,0.2,11.5-0.6,11.8c-0.7,0.3-7.5-5.6-8.5-8.1s0.2-5.4,2.7-6.4     C171.6,444.2,174.4,445.5,175.4,448z"/>
			<path style="fill:#317F6C;" d="M186.2,462.6c-2.7,0.4-11.2-2.4-11.3-3.2c-0.1-0.8,7.2-6.1,9.8-6.5c2.7-0.4,5.2,1.4,5.6,4.1     C190.7,459.6,188.9,462.1,186.2,462.6z"/>
			<path style="fill:#317F6C;" d="M156.4,494.6c2.1,4,2.3,19.1,1.2,19.8c-1.1,0.6-13.6-8-15.7-12c-2.1-4-0.6-9,3.4-11.1     C149.3,489.1,154.2,490.6,156.4,494.6z"/>
			<path style="fill:#317F6C;" d="M177,517c-4.4,1.2-19.2-2-19.5-3.3s10.8-11.4,15.2-12.6s8.9,1.4,10.1,5.8     C184,511.3,181.4,515.8,177,517z"/>
			<path style="fill:#317F6C;" d="M146.1,512.5c3.6,4.2,8,22.2,6.7,23.3c-1.2,1-18.4-5.9-22-10.1c-3.6-4.2-3.2-10.6,1-14.2     C136.1,507.8,142.5,508.3,146.1,512.5z"/>
			<path style="fill:#317F6C;" d="M175.3,541.6c-5.5,0.9-23.1-4.9-23.3-6.5c-0.3-1.6,14.6-12.6,20.1-13.5s10.7,2.9,11.6,8.3     C184.5,535.5,180.8,540.7,175.3,541.6z"/>
			<path style="fill:#317F6C;" d="M140.8,535.1c3.6,4.2,8,22.2,6.7,23.3c-1.2,1-18.4-5.9-22-10.1c-3.6-4.2-3.2-10.6,1-14.2     C130.8,530.4,137.2,530.8,140.8,535.1z"/>
			<path style="fill:#317F6C;" d="M170,564.2c-5.5,0.9-23.1-4.9-23.3-6.5c-0.3-1.6,14.6-12.6,20.1-13.5s10.7,2.9,11.6,8.3     C179.2,558.1,175.5,563.3,170,564.2z"/>
			<path style="fill:#317F6C;" d="M127.3,564.1c5,2.5,15.8,17.5,15.1,18.9s-19.2,1.6-24.2-0.9s-7-8.6-4.4-13.5     C116.3,563.5,122.4,561.5,127.3,564.1z"/>
			<path style="fill:#317F6C;" d="M165.5,586.4c-5.3,1.6-23.5-2-24-3.5s13-14.3,18.3-15.9c5.3-1.6,10.9,1.5,12.5,6.8     C173.9,579.3,170.9,584.9,165.5,586.4z"/>
			<path style="fill:#317F6C;" d="M169.6,462.5c1,2.6,0.2,11.7-0.6,12c-0.7,0.3-7.7-5.7-8.7-8.2c-1-2.6,0.2-5.5,2.8-6.5     C165.6,458.7,168.5,459.9,169.6,462.5z"/>
			<path style="fill:#317F6C;" d="M180.2,477.5c-2.7,0.4-11.4-2.5-11.5-3.2c-0.1-0.8,7.3-6.2,10-6.6s5.3,1.4,5.7,4.2     C184.7,474.5,182.9,477.1,180.2,477.5z"/>
			<path style="fill:#317F6C;" d="M162.6,476.1c1.8,3.5,1.6,16.5,0.6,17s-11.5-7.2-13.3-10.7s-0.3-7.8,3.2-9.5     C156.6,471.2,160.9,472.6,162.6,476.1z"/>
			<path style="fill:#317F6C;" d="M179.4,497.3c-3.9,0.6-16.2-3.5-16.4-4.6s10.3-8.8,14.2-9.4s7.5,2,8.1,5.9     C185.9,493.1,183.3,496.7,179.4,497.3z"/>
		</g>
		<path style="fill:#FFFFFF;" d="M598.3,114.4c3.4,5.6,0.7,13.6-4.9,17.1c-5.6,3.5-13,2.9-18.8-0.2c-3.1-1.6-5.9-4-9.3-4.7    c-8.4-1.8-18.6,8.4-26.4,2.5c-6.8-5.1-3.6-9.8,1.6-13.8C555.9,103.4,581.2,119.3,598.3,114.4z"/>
	</g>
</g>
</svg>